<?xml version="1.0" standalone="no"?>
<!DOCTYPE svg PUBLIC "-//W3C//DTD SVG 20010904//EN"
 "http://www.w3.org/TR/2001/REC-SVG-20010904/DTD/svg10.dtd">
<svg version="1.0" xmlns="http://www.w3.org/2000/svg"
 width="290.000000pt" height="131.000000pt" viewBox="0 0 290.000000 131.000000"
 preserveAspectRatio="xMidYMid meet">

<g transform="translate(0.000000,131.000000) scale(0.100000,-0.100000)"
fill="#000000" stroke="none">
<path d="M590 1083 c-17 -14 -36 -37 -41 -50 -11 -29 -29 -21 -29 13 0 19 -5
25 -17 22 -27 -5 -33 -67 -36 -340 -2 -226 0 -249 16 -265 27 -28 34 -6 43
129 l7 118 31 0 c44 0 72 23 102 81 52 103 55 233 7 289 -31 37 -43 37 -83 3z
m53 -63 c12 -47 -7 -178 -33 -230 -21 -40 -53 -66 -70 -55 -16 10 -12 166 6
226 21 73 40 101 67 97 14 -2 24 -14 30 -38z"/>
<path d="M745 920 c-9 -15 4 -80 15 -80 13 0 13 77 1 85 -5 3 -13 0 -16 -5z"/>
<path d="M1636 898 c11 -31 11 -180 0 -248 -4 -30 -5 -52 -1 -48 13 13 34 139
35 206 0 60 1 62 25 62 26 0 26 0 18 -62 -13 -110 -8 -289 9 -330 31 -70 77
-58 124 32 13 25 23 40 24 33 0 -6 12 -25 26 -42 21 -26 33 -31 69 -31 26 0
47 6 55 15 18 21 27 19 34 -10 4 -14 18 -31 31 -37 22 -10 29 -8 56 18 16 15
32 39 35 51 8 30 24 19 24 -16 0 -16 7 -34 16 -41 28 -24 42 9 64 143 39 246
80 267 80 42 0 -101 5 -125 25 -125 20 0 26 15 42 102 7 44 20 93 29 110 14
27 17 29 31 16 10 -11 17 -49 22 -128 6 -93 11 -115 26 -126 39 -29 76 -11
109 54 29 58 40 92 29 92 -4 0 -17 -21 -27 -48 -21 -53 -43 -82 -61 -82 -21 0
-25 26 -18 105 5 58 2 85 -11 120 -29 73 -72 85 -109 30 l-24 -36 -7 33 c-10
52 -33 80 -64 76 -32 -4 -55 -45 -73 -133 -13 -60 -13 -60 -20 -25 -5 19 -8
56 -7 81 1 51 -6 69 -27 69 -19 0 -26 -25 -32 -125 -6 -102 -26 -184 -52 -216
-34 -42 -41 -17 -41 152 0 91 -4 169 -10 180 -15 27 -37 24 -44 -7 -6 -23 -10
-25 -40 -20 -79 15 -129 -37 -146 -151 -11 -80 -48 -168 -70 -168 -26 0 -32
73 -20 233 12 168 8 188 -38 197 -15 3 -41 10 -58 15 -43 14 -47 13 -38 -12z
m398 -168 c35 -87 4 -233 -52 -247 -37 -9 -52 18 -52 97 0 153 65 247 104 150z"/>
<path d="M1129 887 c-15 -12 -30 -35 -33 -51 -9 -36 10 -92 36 -110 20 -14 20
-14 -1 -21 -20 -6 -26 -19 -51 -120 -20 -81 -69 -129 -114 -112 -26 10 -40
113 -28 197 12 88 28 134 42 125 6 -4 8 -15 5 -26 -4 -10 -2 -19 4 -19 13 0
25 45 16 59 -13 22 -63 12 -88 -19 -31 -36 -44 -75 -52 -161 -7 -74 -36 -132
-63 -127 -15 3 -18 21 -22 145 -4 114 -8 146 -22 159 -15 15 -17 15 -28 -6
-19 -36 -9 -269 13 -303 25 -38 58 -35 96 8 l31 36 10 -26 c6 -15 10 -30 10
-35 0 -17 45 -40 78 -40 38 0 88 31 97 60 9 27 21 25 37 -7 34 -68 108 -80
148 -23 19 27 44 113 55 191 4 28 11 38 28 41 23 4 23 2 23 -76 0 -83 8 -111
47 -153 27 -30 82 -31 113 -2 l23 22 6 -25 c4 -14 5 -44 3 -68 l-3 -44 -59
-11 c-93 -19 -128 -74 -91 -145 33 -64 86 -76 136 -32 24 21 36 45 48 97 17
68 18 70 54 77 44 9 101 37 93 45 -3 3 -23 -2 -46 -11 -82 -33 -79 -38 -82
156 -3 169 -3 173 -26 184 -13 6 -31 27 -40 45 -31 63 -105 65 -145 4 -29 -46
-74 -50 -83 -7 -13 60 -37 113 -61 132 -34 26 -81 25 -114 -3z m94 -15 c14
-15 37 -99 37 -135 0 -6 -19 -7 -47 -4 -33 3 -52 12 -64 28 -21 27 -25 99 -7
117 18 18 63 14 81 -6z m279 -89 c28 -32 41 -93 36 -167 -7 -100 -40 -156 -82
-140 -48 19 -47 253 1 306 20 22 26 22 45 1z m-279 -89 c25 -6 27 -10 27 -58
-1 -97 -30 -176 -66 -176 -23 0 -36 77 -29 167 6 71 10 83 24 79 9 -3 28 -8
44 -12z m321 -373 c11 -17 -16 -112 -38 -138 -31 -36 -72 -26 -92 23 -14 32
-13 38 1 61 9 13 35 33 58 44 47 21 63 23 71 10z"/>
</g>
</svg>
