<?xml version="1.0" standalone="no"?><!DOCTYPE svg PUBLIC "-//W3C//DTD SVG 20010904//EN"
    "http://www.w3.org/TR/2001/REC-SVG-20010904/DTD/svg10.dtd">
<svg version="1.0" xmlns="http://www.w3.org/2000/svg" width="287.000000pt" height="43.000000pt"
    viewBox="0 0 287.000000 43.000000" preserveAspectRatio="xMidYMid meet">

    <g transform="translate(0.000000,43.000000) scale(0.100000,-0.100000)" fill="#000000"
        stroke="none">
        <path d="M2575 303 c-7 -99 -18 -143 -47 -191 -20 -33 -19 -50 1 -37 17 10 49
77 56 119 l8 37 33 -32 c47 -45 55 -29 10 21 -34 37 -36 44 -36 105 0 95 -17
79 -25 -22z" />
        <path d="M2708 302 c-6 -93 -24 -143 -72 -195 -26 -28 -33 -47 -18 -47 17 0
61 57 85 107 l24 52 22 -53 c24 -59 63 -102 81 -91 8 5 2 18 -19 39 -41 42
-71 123 -78 208 -3 37 -9 68 -13 68 -4 0 -9 -39 -12 -88z" />
        <path d="M1604 364 c-22 -63 -69 -165 -94 -206 -17 -27 -30 -53 -30 -59 0 -7
42 -8 131 -3 102 5 133 4 139 -6 4 -7 12 -10 18 -6 11 7 -74 166 -89 166 -15
0 -11 -15 17 -64 15 -27 23 -51 18 -56 -10 -10 -194 -18 -194 -9 0 4 11 26 24
50 48 86 88 191 77 202 -7 7 -12 4 -17 -9z" />
        <path d="M100 273 c-1 -68 -6 -114 -19 -151 -10 -29 -14 -55 -10 -58 14 -8 40
56 46 112 l6 54 108 0 c77 0 109 -4 112 -12 9 -26 16 0 18 72 l2 75 -131 3
-132 3 0 -98z m240 22 l0 -45 -110 0 -110 0 0 45 0 45 110 0 110 0 0 -45z" />
        <path d="M2170 360 c0 -6 46 -10 119 -10 l119 0 3 -124 c3 -105 7 -127 23
-145 34 -37 56 -22 56 39 0 41 -18 47 -22 8 -2 -18 -7 -32 -13 -31 -17 3 -23
43 -24 161 l-1 112 -130 0 c-80 0 -130 -4 -130 -10z" />
        <path d="M430 350 c0 -6 28 -10 65 -10 l65 0 0 -120 0 -120 -75 0 c-43 0 -75
-4 -75 -10 0 -6 62 -10 165 -10 103 0 165 4 165 10 0 6 -32 10 -75 10 l-75 0
0 120 0 120 65 0 c37 0 65 4 65 10 0 6 -55 10 -145 10 -90 0 -145 -4 -145 -10z" />
        <path d="M790 215 l0 -145 146 0 c112 0 145 3 142 13 -3 8 -41 13 -131 15
l-127 3 0 119 0 120 125 0 c77 0 125 4 125 10 0 6 -53 10 -140 10 l-140 0 0
-145z" />
        <path d="M1858 262 c-3 -74 -9 -108 -26 -142 -13 -26 -18 -48 -13 -53 14 -14
51 67 58 124 6 48 6 49 40 49 29 0 36 -5 48 -34 22 -51 63 -94 115 -121 39
-20 49 -22 54 -10 3 9 -3 17 -17 21 -36 11 -86 49 -113 85 -39 53 -33 62 36
57 l60 -4 0 63 0 63 -119 0 -119 0 -4 -98z m222 38 l0 -40 -100 0 -100 0 0 40
0 40 100 0 100 0 0 -40z" />
        <path d="M1140 210 c0 -118 2 -140 15 -140 8 0 15 7 15 15 0 12 18 15 105 15
87 0 105 -3 105 -15 0 -8 7 -15 15 -15 13 0 15 22 15 140 l0 140 -135 0 -135
0 0 -140z m240 20 l0 -100 -105 0 -105 0 0 100 0 100 105 0 105 0 0 -100z" />
        <path d="M2260 285 l0 -45 -51 0 c-31 0 -48 -4 -44 -10 3 -5 26 -10 51 -10
l44 0 0 -80 c0 -47 4 -80 10 -80 6 0 10 33 10 80 l0 80 55 0 c30 0 55 5 55 10
0 6 -25 10 -55 10 l-55 0 0 45 c0 25 -4 45 -10 45 -5 0 -10 -20 -10 -45z" />
    </g>
</svg>
